<?xml version="1.0" encoding="UTF-8" ?>
<!DOCTYPE svg PUBLIC "-//W3C//DTD SVG 1.1//EN" "http://www.w3.org/Graphics/SVG/1.1/DTD/svg11.dtd">
<svg width="290pt" height="71pt" viewBox="0 0 290 71" version="1.1" xmlns="http://www.w3.org/2000/svg">
<path fill="#d8d8d8" d=" M 0.00 0.00 L 290.00 0.00 L 290.00 71.00 L 0.00 71.00 L 0.00 0.00 Z" />
<path fill="#777" d=" M 47.52 6.56 C 48.89 6.56 50.27 6.56 51.64 6.55 C 51.66 7.95 51.68 9.34 51.70 10.74 C 50.30 10.74 48.91 10.74 47.51 10.74 C 47.51 9.35 47.51 7.95 47.52 6.56 Z" />
<path fill="#777" d=" M 223.69 6.61 C 224.99 6.58 226.30 6.54 227.60 6.50 C 227.89 7.87 228.18 9.24 228.48 10.60 C 226.88 10.67 225.28 10.72 223.69 10.75 C 223.69 9.37 223.69 7.99 223.69 6.61 Z" />
<path fill="#777" d=" M 211.60 6.56 C 212.63 6.56 214.69 6.56 215.72 6.56 C 215.73 15.51 215.69 24.46 215.75 33.41 C 217.58 33.50 219.42 33.56 221.26 33.62 C 221.27 34.67 221.27 36.76 221.28 37.81 C 217.84 37.81 212.83 38.28 211.91 33.89 C 211.16 24.84 211.83 15.66 211.60 6.56 Z" />
<path fill="#777" d=" M 8.42 14.26 C 18.62 14.36 28.82 14.17 39.02 14.33 C 41.60 14.34 43.58 16.83 43.61 19.30 C 43.88 25.46 43.61 31.65 43.72 37.82 C 42.37 37.77 41.02 37.72 39.68 37.67 C 39.69 31.29 39.77 24.91 39.62 18.54 C 36.13 18.47 32.64 18.48 29.14 18.52 C 28.41 24.92 28.87 31.38 28.77 37.82 C 27.37 37.77 25.98 37.72 24.58 37.68 C 24.62 31.29 24.65 24.90 24.56 18.51 C 20.57 18.48 16.59 18.47 12.60 18.55 C 12.53 24.94 12.56 31.34 12.59 37.73 C 11.20 37.75 9.81 37.76 8.42 37.77 C 8.45 29.93 8.46 22.10 8.42 14.26 Z" />
<path fill="#777" d=" M 60.27 14.44 C 66.65 14.03 73.05 14.40 79.43 14.28 C 79.42 15.69 79.41 17.10 79.40 18.51 C 73.06 18.49 66.71 18.48 60.37 18.51 C 60.28 23.51 60.28 28.52 60.36 33.53 C 66.74 33.57 73.12 33.56 79.50 33.53 C 79.51 34.58 79.53 36.69 79.55 37.74 C 73.68 37.70 67.82 37.84 61.96 37.72 C 60.12 37.73 58.46 36.85 56.78 36.23 C 55.55 30.87 55.58 25.33 55.91 19.87 C 56.12 17.41 57.48 14.61 60.27 14.44 Z" />
<path fill="#777" d=" M 130.46 17.66 C 131.94 16.12 133.50 14.18 135.88 14.36 C 140.74 14.26 145.63 14.05 150.47 14.48 C 153.58 14.75 154.64 18.00 155.00 20.61 C 152.94 20.27 150.91 19.71 149.16 18.55 C 144.34 18.46 139.51 18.45 134.69 18.57 C 134.67 20.22 134.67 21.87 134.68 23.53 C 139.50 23.72 144.34 23.49 149.17 23.65 C 151.62 23.70 154.35 25.28 154.57 27.94 C 154.71 30.70 155.46 34.13 153.19 36.26 C 151.55 37.89 149.08 37.69 146.95 37.77 C 142.95 37.70 138.92 37.97 134.93 37.57 C 132.24 37.43 130.59 34.73 130.22 32.31 C 132.26 30.82 134.34 32.27 135.98 33.52 C 140.83 33.57 145.69 33.59 150.54 33.50 C 150.52 31.59 150.49 29.68 150.42 27.77 C 144.62 27.68 138.82 27.95 133.04 27.50 C 132.21 26.36 131.38 25.23 130.56 24.10 C 130.52 21.95 130.50 19.80 130.46 17.66 Z" />
<path fill="#777" d=" M 162.33 14.38 C 168.49 14.09 174.67 14.39 180.83 14.26 C 180.81 15.68 180.79 17.10 180.78 18.53 C 174.43 18.49 168.07 18.43 161.72 18.57 C 161.67 23.54 161.67 28.50 161.72 33.47 C 168.24 33.64 174.77 33.51 181.30 33.56 C 181.30 34.59 181.32 36.66 181.33 37.70 C 174.87 37.69 168.39 37.96 161.93 37.60 C 159.23 37.49 157.53 34.60 157.56 32.13 C 157.47 28.04 157.48 23.96 157.57 19.87 C 157.53 17.23 159.48 14.35 162.33 14.38 Z" />
<path fill="#777" d=" M 184.62 14.58 C 190.74 14.65 196.87 14.52 202.99 14.61 C 205.67 14.50 208.64 16.42 208.65 19.31 C 208.90 25.46 208.62 31.62 208.77 37.77 C 202.28 37.64 195.78 37.95 189.30 37.64 C 187.09 37.75 185.89 35.68 184.54 34.31 C 184.59 30.96 184.57 27.62 184.58 24.28 C 191.21 24.29 197.83 24.30 204.46 24.28 C 204.53 22.58 204.57 20.89 204.61 19.19 C 197.95 18.41 191.23 18.92 184.55 18.77 C 184.57 17.38 184.59 15.98 184.62 14.58 Z" />
<path fill="#777" d=" M 232.27 14.26 C 238.75 14.39 245.23 14.09 251.70 14.39 C 254.50 14.38 256.47 17.18 256.45 19.80 C 256.59 25.79 256.42 31.78 256.49 37.77 C 255.09 37.76 253.69 37.75 252.29 37.74 C 252.33 31.35 252.35 24.96 252.29 18.57 C 247.02 18.44 241.76 18.48 236.50 18.52 C 236.40 24.91 236.44 31.31 236.47 37.71 C 235.07 37.74 233.68 37.77 232.28 37.80 C 232.31 29.95 232.32 22.10 232.27 14.26 Z" />
<path fill="#777" d=" M 47.54 14.58 C 48.57 14.58 50.62 14.56 51.65 14.55 C 51.69 22.28 51.63 30.01 51.69 37.74 C 50.30 37.75 48.90 37.75 47.50 37.76 C 47.55 30.03 47.50 22.31 47.54 14.58 Z" />
<path fill="#777" d=" M 82.88 20.89 C 83.05 18.30 83.89 14.90 86.96 14.50 C 91.55 13.99 96.19 14.40 100.80 14.29 C 100.79 15.34 100.76 17.46 100.75 18.52 C 96.29 18.48 91.83 18.48 87.38 18.52 C 87.28 24.92 87.33 31.31 87.35 37.71 C 85.83 37.71 84.31 37.71 82.79 37.70 C 82.89 32.10 82.65 26.49 82.88 20.89 Z" />
<path fill="#777" d=" M 105.41 15.48 C 106.90 14.06 109.11 14.39 110.99 14.26 C 115.03 14.31 119.09 14.11 123.12 14.40 C 125.42 14.48 127.48 16.58 127.57 18.87 C 127.80 23.62 127.78 28.38 127.58 33.12 C 127.49 35.50 125.38 37.71 122.95 37.65 C 118.29 37.87 113.62 37.79 108.96 37.70 C 106.25 37.99 103.76 35.71 103.59 33.06 C 103.38 28.68 103.47 24.29 103.53 19.91 C 103.45 18.25 104.14 16.57 105.41 15.48 Z" />
<path fill="#777" d=" M 223.70 14.62 C 224.71 14.60 226.74 14.56 227.75 14.54 C 228.92 22.28 227.80 30.06 227.73 37.82 C 226.38 37.77 225.02 37.72 223.67 37.67 C 223.72 29.99 223.68 22.31 223.70 14.62 Z" />
<path fill="#777" d=" M 259.40 19.05 C 259.42 16.62 261.61 14.40 264.06 14.38 C 268.70 14.19 273.37 14.15 278.02 14.42 C 280.74 14.51 282.71 17.37 282.49 19.96 C 282.51 27.36 282.59 34.77 282.46 42.17 C 282.60 44.66 280.26 46.09 278.58 47.47 C 273.59 47.33 268.59 47.40 263.59 47.39 C 263.58 46.36 263.57 44.29 263.56 43.25 C 268.04 43.15 272.54 43.49 277.01 43.09 C 279.26 42.40 278.02 39.58 278.54 37.90 C 273.68 37.60 268.80 37.90 263.93 37.69 C 261.14 37.67 259.08 34.77 259.33 32.11 C 259.27 27.76 259.18 23.40 259.40 19.05 Z" />
<path fill="#d8d8d8" d=" M 107.67 18.56 C 112.93 18.45 118.20 18.48 123.46 18.53 C 123.53 23.52 123.53 28.51 123.47 33.50 C 118.20 33.58 112.93 33.60 107.66 33.48 C 107.61 28.51 107.60 23.53 107.67 18.56 Z" />
<path fill="#d8d8d8" d=" M 263.52 18.53 C 268.47 18.47 273.41 18.46 278.36 18.55 C 278.42 23.53 278.41 28.51 278.36 33.49 C 273.41 33.59 268.47 33.58 263.52 33.50 C 263.46 28.51 263.45 23.52 263.52 18.53 Z" />
<path fill="#d8d8d8" d=" M 188.67 28.48 C 193.99 28.40 199.31 28.44 204.63 28.44 C 204.60 30.14 204.57 31.83 204.53 33.53 C 199.27 33.56 194.01 33.62 188.76 33.46 C 188.72 31.80 188.69 30.14 188.67 28.48 Z" />
<path fill="#777" d=" M 198.69 48.95 C 199.05 46.04 197.50 41.95 201.19 40.72 C 201.31 42.37 201.41 44.02 201.51 45.67 C 203.21 45.65 204.91 45.63 206.61 45.62 C 206.60 46.30 206.58 47.66 206.57 48.33 C 204.85 48.33 203.13 48.31 201.41 48.31 C 201.43 51.04 201.43 53.77 201.45 56.50 C 203.15 56.50 204.85 56.49 206.56 56.49 C 206.60 57.07 206.66 58.23 206.70 58.81 C 204.33 58.76 201.96 58.69 199.59 58.52 C 198.96 55.36 198.67 52.16 198.69 48.95 Z" />
<path fill="#777" d=" M 168.32 45.52 C 168.86 45.57 169.93 45.68 170.47 45.74 C 170.50 49.32 170.49 52.90 170.52 56.49 C 173.24 56.50 175.97 56.50 178.70 56.49 C 178.74 52.42 178.26 48.20 179.98 44.38 C 182.30 49.86 181.25 56.04 181.16 61.83 C 179.39 65.98 173.94 63.81 170.48 64.36 C 170.46 63.67 170.42 62.29 170.40 61.60 C 173.21 61.60 176.02 61.61 178.83 61.57 C 178.74 60.63 178.65 59.69 178.56 58.76 C 175.25 58.78 171.95 58.77 168.65 58.53 C 167.72 54.25 167.55 49.84 168.32 45.52 Z" />
<path fill="#777" d=" M 152.35 51.45 C 153.08 49.59 152.65 46.63 154.99 45.90 C 157.71 45.37 160.53 45.70 163.29 45.60 C 163.89 45.94 165.11 46.61 165.72 46.94 C 165.71 47.76 165.72 48.58 165.73 49.39 C 162.39 48.05 158.76 48.29 155.24 48.35 C 155.32 49.31 155.40 50.28 155.49 51.24 C 158.86 51.23 162.23 51.21 165.58 51.55 C 165.76 53.85 165.76 56.17 165.60 58.47 C 161.68 58.84 157.73 58.81 153.80 58.62 C 153.49 57.75 152.87 56.01 152.56 55.14 C 153.44 55.47 155.21 56.13 156.09 56.46 C 158.58 56.48 161.07 56.50 163.56 56.50 C 163.56 55.77 163.56 54.31 163.56 53.58 C 159.77 53.31 155.22 54.69 152.35 51.45 Z" />
<path fill="#777" d=" M 183.66 47.07 C 184.23 46.72 185.37 46.01 185.94 45.66 C 188.88 45.62 191.82 45.64 194.76 45.59 C 195.62 46.81 196.47 48.04 197.30 49.29 C 193.50 48.23 189.56 48.21 185.65 48.40 C 185.71 49.34 185.77 50.28 185.84 51.22 C 189.21 51.36 192.68 50.86 195.98 51.75 C 197.14 53.80 196.49 56.22 196.41 58.44 C 192.58 58.76 188.71 59.05 184.89 58.49 C 184.39 57.74 183.38 56.25 182.88 55.50 C 186.63 56.41 190.49 56.65 194.34 56.50 C 194.34 55.77 194.34 54.32 194.35 53.60 C 190.74 53.52 186.97 54.01 183.57 52.51 C 183.58 50.69 183.60 48.88 183.66 47.07 Z" />
<path fill="#777" d=" M 208.43 46.97 C 209.00 46.63 210.13 45.95 210.69 45.62 C 213.47 45.66 216.26 45.46 219.03 45.82 C 222.30 46.93 221.12 50.93 221.46 53.54 C 217.82 53.58 214.19 53.57 210.56 53.56 C 210.56 54.29 210.57 55.75 210.57 56.48 C 214.16 56.49 217.76 56.48 221.35 56.50 L 221.38 58.74 C 217.13 58.76 212.86 58.86 208.62 58.49 C 208.09 54.68 208.13 50.81 208.43 46.97 Z" />
<path fill="#777" d=" M 223.64 58.79 C 223.64 54.40 223.64 50.01 223.63 45.62 C 229.09 45.72 234.56 45.48 240.01 45.71 C 241.65 45.76 242.90 47.10 243.15 48.67 C 243.44 51.99 243.25 55.34 243.30 58.67 C 242.62 58.69 241.28 58.71 240.60 58.73 C 240.61 55.25 240.62 51.77 240.63 48.30 C 238.60 48.31 236.58 48.33 234.56 48.36 C 234.57 51.82 234.58 55.28 234.59 58.74 C 234.02 58.75 232.86 58.77 232.29 58.78 C 232.28 55.31 232.29 51.84 232.30 48.36 C 230.28 48.33 228.26 48.32 226.24 48.31 C 226.24 51.73 226.25 55.15 226.28 58.58 C 225.39 58.65 224.51 58.71 223.64 58.79 Z" />
<path fill="#777" d=" M 245.38 52.47 C 245.31 50.02 245.23 47.39 247.21 45.60 C 250.37 45.64 253.54 45.63 256.70 45.63 C 257.58 46.80 258.40 48.02 259.11 49.31 C 255.19 48.16 251.06 48.11 247.03 48.63 C 248.60 53.10 253.79 50.43 257.24 51.52 C 259.46 53.09 258.17 56.13 258.37 58.40 C 254.54 58.77 250.66 59.02 246.84 58.52 C 246.30 57.77 245.22 56.25 244.68 55.49 C 248.65 56.49 252.73 56.70 256.80 56.35 C 256.56 55.70 256.08 54.40 255.84 53.75 C 252.35 53.35 248.67 54.01 245.38 52.47 Z" />
<path fill="#d8d8d8" d=" M 210.50 48.34 C 213.29 48.33 216.08 48.33 218.87 48.37 C 218.80 49.33 218.72 50.30 218.65 51.27 C 215.97 51.26 213.28 51.26 210.60 51.26 C 210.57 50.29 210.53 49.31 210.50 48.34 Z" />
</svg>
