<?xml version="1.0" encoding="utf-8"?>
<!-- Generator: Adobe Illustrator 18.1.1, SVG Export Plug-In . SVG Version: 6.00 Build 0)  -->
<svg version="1.1" id="Layer_1" xmlns="http://www.w3.org/2000/svg" xmlns:xlink="http://www.w3.org/1999/xlink" x="0px" y="0px"
	 viewBox="0 0 612 792" enable-background="new 0 0 612 792" xml:space="preserve">
<path fill-rule="evenodd" clip-rule="evenodd" fill="#81B346" d="M313.1,416.8h-6v20.9h-8.9v-29.9H337v29.9h-9v-20.9h-6v20.9h-8.9
	V416.8z M366.9,407.9v29.9H343v-15h15v-5.9h-15v-9H366.9z M381.9,407.9l6,7.6l6-7.6h11.9l-11.9,14.9l11.9,15h-11.9l-6-7.6l-6,7.6
	h-12l12-15l-12-14.9H381.9z"/>
<path fill-rule="evenodd" clip-rule="evenodd" fill="#65666A" d="M196.7,407.9v23.9h-17.9v6h-8.9v-29.9H196.7z M202.7,416.8v-9h23.9
	v29.9h-23.9v-15h14.9v-5.9H202.7z M262.5,437.7h-8.9v-20.9h-12v20.9h-9v-29.9h29.9V437.7z M268.4,416.8v-9h23.8v29.9h-23.8v-15h15
	v-5.9H268.4z M187.8,416.8h-8.9v5.9h8.9V416.8z"/>
<path fill-rule="evenodd" clip-rule="evenodd" fill="#80B343" d="M408.2,408.7v-0.9h4.8v0.9h-1.8v4.4h-1.1v-4.4H408.2z M419.3,407.9
	v5.3h-1.1v-4.5l-1.4,4.5h-0.9l-1.4-4.5v4.5h-1v-5.3h1.8l1.1,3.9l1.1-3.9H419.3z"/>
</svg>
